<svg xmlns="http://www.w3.org/2000/svg" xmlns:xlink="http://www.w3.org/1999/xlink" width="500" zoomAndPan="magnify" viewBox="0 0 375 374.999991" height="500" preserveAspectRatio="xMidYMid meet" version="1.0"><defs><g/><clipPath id="e3cfcda757"><path d="M 69.589844 209.957031 L 304.894531 209.957031 L 304.894531 217.117188 L 69.589844 217.117188 Z M 69.589844 209.957031 " clip-rule="nonzero"/></clipPath><clipPath id="b72210cabc"><path d="M 69.589844 217.046875 L 304.894531 217.046875 L 304.894531 222.367188 L 69.589844 222.367188 Z M 69.589844 217.046875 " clip-rule="nonzero"/></clipPath><clipPath id="a2275e9c5f"><path d="M 69.589844 222.367188 L 304.894531 222.367188 L 304.894531 229.777344 L 69.589844 229.777344 Z M 69.589844 222.367188 " clip-rule="nonzero"/></clipPath><clipPath id="c2bef943b7"><path d="M 69.589844 229.777344 L 304.894531 229.777344 L 304.894531 235.128906 L 69.589844 235.128906 Z M 69.589844 229.777344 " clip-rule="nonzero"/></clipPath><clipPath id="5003a98eb8"><path d="M 69.589844 235.128906 L 304.894531 235.128906 L 304.894531 241.152344 L 69.589844 241.152344 Z M 69.589844 235.128906 " clip-rule="nonzero"/></clipPath></defs><rect x="-37.5" width="450" fill="#ffffff" y="-37.499999" height="449.999989" fill-opacity="1"/><rect x="-37.5" width="450" fill="#e4dbc9" y="-37.499999" height="449.999989" fill-opacity="1"/><g clip-path="url(#e3cfcda757)"><path fill="#edbd68" d="M 69.589844 209.957031 L 304.894531 209.957031 L 304.894531 217.117188 L 69.589844 217.117188 Z M 69.589844 209.957031 " fill-opacity="1" fill-rule="nonzero"/></g><g clip-path="url(#b72210cabc)"><path fill="#f2704e" d="M 69.589844 217.046875 L 304.894531 217.046875 L 304.894531 222.367188 L 69.589844 222.367188 Z M 69.589844 217.046875 " fill-opacity="1" fill-rule="nonzero"/></g><g clip-path="url(#a2275e9c5f)"><path fill="#de5152" d="M 69.589844 222.367188 L 304.894531 222.367188 L 304.894531 229.777344 L 69.589844 229.777344 Z M 69.589844 222.367188 " fill-opacity="1" fill-rule="nonzero"/></g><g clip-path="url(#c2bef943b7)"><path fill="#a43845" d="M 69.589844 229.777344 L 304.894531 229.777344 L 304.894531 235.128906 L 69.589844 235.128906 Z M 69.589844 229.777344 " fill-opacity="1" fill-rule="nonzero"/></g><g clip-path="url(#5003a98eb8)"><path fill="#602b53" d="M 69.589844 235.128906 L 304.894531 235.128906 L 304.894531 241.152344 L 69.589844 241.152344 Z M 69.589844 235.128906 " fill-opacity="1" fill-rule="nonzero"/></g><g fill="#1e1e1e" fill-opacity="1"><g transform="translate(121.478276, 186.893052)"><g><path d="M 1.78125 -14.296875 C 1.78125 -28.515625 10.335938 -36.914062 16.039062 -38.378906 C 16.277344 -24.398438 9.902344 -5.425781 5.664062 0 L 28.515625 0 C 24.277344 -5.425781 17.902344 -24.398438 17.902344 -38.378906 C 23.644531 -36.914062 32.199219 -28.515625 32.199219 -14.296875 L 33.191406 -14.296875 L 33.191406 -39.605469 L 0.792969 -39.605469 L 0.792969 -14.296875 Z M 1.78125 -14.296875 "/></g></g></g><g fill="#1e1e1e" fill-opacity="1"><g transform="translate(155.456802, 186.893052)"><g><path d="M 0.59375 -14.773438 C 0.59375 -5.425781 6.652344 0.792969 15.722656 0.792969 C 24.832031 0.792969 30.894531 -5.425781 30.894531 -14.773438 C 30.894531 -24.082031 24.832031 -30.296875 15.722656 -30.296875 C 6.652344 -30.296875 0.59375 -24.082031 0.59375 -14.773438 Z M 15.761719 -29.03125 C 16.632812 -29.03125 17.347656 -28.199219 17.347656 -25.308594 C 17.347656 -24.675781 17.347656 -15.484375 17.347656 -14.773438 C 17.347656 -14.058594 17.347656 -4.871094 17.347656 -4.238281 C 17.347656 -1.347656 16.632812 -0.515625 15.761719 -0.515625 C 14.890625 -0.515625 14.179688 -1.347656 14.179688 -4.238281 C 14.179688 -4.871094 14.179688 -14.058594 14.179688 -14.773438 C 14.179688 -15.484375 14.179688 -24.675781 14.179688 -25.308594 C 14.179688 -28.199219 14.890625 -29.03125 15.761719 -29.03125 Z M 15.761719 -29.03125 "/></g></g></g><g fill="#1e1e1e" fill-opacity="1"><g transform="translate(186.940398, 186.893052)"><g><path d="M 1.1875 -39.605469 L 1.1875 0 L 18.8125 0 C 25.109375 0 34.496094 -6.257812 34.496094 -19.804688 C 34.496094 -33.347656 25.109375 -39.605469 18.8125 -39.605469 Z M 14.496094 -1.386719 L 14.496094 -38.21875 L 16.238281 -38.21875 C 20.871094 -38.21875 20.871094 -29.269531 20.871094 -19.804688 C 20.871094 -10.535156 20.636719 -1.386719 16.238281 -1.386719 Z M 14.496094 -1.386719 "/></g></g></g><g fill="#1e1e1e" fill-opacity="1"><g transform="translate(222.02778, 186.893052)"><g><path d="M 0.59375 -14.773438 C 0.59375 -5.425781 6.652344 0.792969 15.722656 0.792969 C 24.832031 0.792969 30.894531 -5.425781 30.894531 -14.773438 C 30.894531 -24.082031 24.832031 -30.296875 15.722656 -30.296875 C 6.652344 -30.296875 0.59375 -24.082031 0.59375 -14.773438 Z M 15.761719 -29.03125 C 16.632812 -29.03125 17.347656 -28.199219 17.347656 -25.308594 C 17.347656 -24.675781 17.347656 -15.484375 17.347656 -14.773438 C 17.347656 -14.058594 17.347656 -4.871094 17.347656 -4.238281 C 17.347656 -1.347656 16.632812 -0.515625 15.761719 -0.515625 C 14.890625 -0.515625 14.179688 -1.347656 14.179688 -4.238281 C 14.179688 -4.871094 14.179688 -14.058594 14.179688 -14.773438 C 14.179688 -15.484375 14.179688 -24.675781 14.179688 -25.308594 C 14.179688 -28.199219 14.890625 -29.03125 15.761719 -29.03125 Z M 15.761719 -29.03125 "/></g></g></g><g fill="#1e1e1e" fill-opacity="1"><g transform="translate(58.002221, 204.823098)"><g><path d="M 6.953125 -7.234375 L 4.234375 -7.234375 L 4.234375 0 L 2.796875 0 L 2.796875 -7.234375 L 0.109375 -7.234375 L 0.109375 -8.53125 L 6.953125 -8.53125 Z M 6.953125 -7.234375 "/></g></g></g><g fill="#1e1e1e" fill-opacity="1"><g transform="translate(68.926527, 204.823098)"><g><path d="M 6.625 -1.921875 L 2.328125 -1.921875 L 1.515625 0 L 0.015625 0 L 3.78125 -8.53125 L 5.25 -8.53125 L 8.984375 0 L 7.453125 0 Z M 6.078125 -3.203125 L 4.46875 -7 L 2.859375 -3.203125 Z M 6.078125 -3.203125 "/></g></g></g><g fill="#1e1e1e" fill-opacity="1"><g transform="translate(81.788626, 204.823098)"><g><path d="M 3.921875 -8.59375 C 5.023438 -8.59375 6.019531 -8.300781 6.90625 -7.71875 L 6.3125 -6.453125 C 5.445312 -6.972656 4.613281 -7.234375 3.8125 -7.234375 C 3.382812 -7.234375 3.046875 -7.15625 2.796875 -7 C 2.546875 -6.851562 2.421875 -6.632812 2.421875 -6.34375 C 2.421875 -6.0625 2.535156 -5.820312 2.765625 -5.625 C 2.992188 -5.425781 3.273438 -5.28125 3.609375 -5.1875 C 3.953125 -5.09375 4.320312 -4.972656 4.71875 -4.828125 C 5.125 -4.691406 5.492188 -4.539062 5.828125 -4.375 C 6.171875 -4.21875 6.453125 -3.96875 6.671875 -3.625 C 6.898438 -3.289062 7.015625 -2.882812 7.015625 -2.40625 C 7.015625 -1.664062 6.71875 -1.070312 6.125 -0.625 C 5.53125 -0.175781 4.753906 0.046875 3.796875 0.046875 C 3.148438 0.046875 2.519531 -0.0703125 1.90625 -0.3125 C 1.300781 -0.5625 0.769531 -0.890625 0.3125 -1.296875 L 0.9375 -2.546875 C 1.363281 -2.148438 1.832031 -1.84375 2.34375 -1.625 C 2.863281 -1.40625 3.359375 -1.296875 3.828125 -1.296875 C 4.328125 -1.296875 4.71875 -1.390625 5 -1.578125 C 5.28125 -1.765625 5.421875 -2.019531 5.421875 -2.34375 C 5.421875 -2.632812 5.304688 -2.878906 5.078125 -3.078125 C 4.847656 -3.273438 4.5625 -3.421875 4.21875 -3.515625 C 3.882812 -3.609375 3.515625 -3.722656 3.109375 -3.859375 C 2.710938 -3.992188 2.34375 -4.132812 2 -4.28125 C 1.664062 -4.4375 1.382812 -4.679688 1.15625 -5.015625 C 0.925781 -5.347656 0.8125 -5.75 0.8125 -6.21875 C 0.8125 -6.9375 1.09375 -7.507812 1.65625 -7.9375 C 2.226562 -8.375 2.984375 -8.59375 3.921875 -8.59375 Z M 3.921875 -8.59375 "/></g></g></g><g fill="#1e1e1e" fill-opacity="1"><g transform="translate(93.236992, 204.823098)"><g><path d="M 6.8125 0 L 4.015625 -3.765625 L 2.5625 -2.171875 L 2.5625 0 L 1.125 0 L 1.125 -8.53125 L 2.5625 -8.53125 L 2.5625 -4.125 L 6.625 -8.53125 L 8.328125 -8.53125 L 5.015625 -4.890625 L 8.546875 0 Z M 6.8125 0 "/></g></g></g><g fill="#1e1e1e" fill-opacity="1"><g transform="translate(105.855344, 204.823098)"><g/></g></g><g fill="#1e1e1e" fill-opacity="1"><g transform="translate(112.867488, 204.823098)"><g><path d="M 10.140625 0 L 8.8125 0 L 8.796875 -6.375 L 6.109375 -0.890625 L 5.171875 -0.890625 L 2.46875 -6.375 L 2.46875 0 L 1.125 0 L 1.125 -8.53125 L 2.828125 -8.53125 L 5.640625 -2.859375 L 8.453125 -8.53125 L 10.140625 -8.53125 Z M 10.140625 0 "/></g></g></g><g fill="#1e1e1e" fill-opacity="1"><g transform="translate(128.008644, 204.823098)"><g><path d="M 6.625 -1.921875 L 2.328125 -1.921875 L 1.515625 0 L 0.015625 0 L 3.78125 -8.53125 L 5.25 -8.53125 L 8.984375 0 L 7.453125 0 Z M 6.078125 -3.203125 L 4.46875 -7 L 2.859375 -3.203125 Z M 6.078125 -3.203125 "/></g></g></g><g fill="#1e1e1e" fill-opacity="1"><g transform="translate(140.870744, 204.823098)"><g><path d="M 8.515625 0 L 7.109375 0 L 2.5625 -6.125 L 2.5625 0 L 1.125 0 L 1.125 -8.53125 L 2.53125 -8.53125 L 7.109375 -2.40625 L 7.109375 -8.53125 L 8.515625 -8.53125 Z M 8.515625 0 "/></g></g></g><g fill="#1e1e1e" fill-opacity="1"><g transform="translate(154.39097, 204.823098)"><g><path d="M 6.625 -1.921875 L 2.328125 -1.921875 L 1.515625 0 L 0.015625 0 L 3.78125 -8.53125 L 5.25 -8.53125 L 8.984375 0 L 7.453125 0 Z M 6.078125 -3.203125 L 4.46875 -7 L 2.859375 -3.203125 Z M 6.078125 -3.203125 "/></g></g></g><g fill="#1e1e1e" fill-opacity="1"><g transform="translate(167.253076, 204.823098)"><g><path d="M 6.953125 -4.1875 L 8.21875 -4.1875 L 8.21875 -1.046875 C 7.78125 -0.710938 7.257812 -0.441406 6.65625 -0.234375 C 6.0625 -0.0351562 5.476562 0.0625 4.90625 0.0625 C 3.644531 0.0625 2.582031 -0.351562 1.71875 -1.1875 C 0.851562 -2.019531 0.421875 -3.046875 0.421875 -4.265625 C 0.421875 -5.484375 0.859375 -6.503906 1.734375 -7.328125 C 2.609375 -8.148438 3.691406 -8.5625 4.984375 -8.5625 C 5.585938 -8.5625 6.175781 -8.453125 6.75 -8.234375 C 7.332031 -8.023438 7.835938 -7.738281 8.265625 -7.375 L 7.453125 -6.3125 C 6.742188 -6.957031 5.921875 -7.28125 4.984375 -7.28125 C 4.117188 -7.28125 3.382812 -6.988281 2.78125 -6.40625 C 2.175781 -5.820312 1.875 -5.109375 1.875 -4.265625 C 1.875 -3.410156 2.175781 -2.691406 2.78125 -2.109375 C 3.382812 -1.523438 4.125 -1.234375 5 -1.234375 C 5.65625 -1.234375 6.304688 -1.425781 6.953125 -1.8125 Z M 6.953125 -4.1875 "/></g></g></g><g fill="#1e1e1e" fill-opacity="1"><g transform="translate(180.249238, 204.823098)"><g><path d="M 7.21875 -7.234375 L 2.5625 -7.234375 L 2.5625 -4.9375 L 6.734375 -4.9375 L 6.734375 -3.640625 L 2.5625 -3.640625 L 2.5625 -1.296875 L 7.359375 -1.296875 L 7.359375 0 L 1.125 0 L 1.125 -8.53125 L 7.21875 -8.53125 Z M 7.21875 -7.234375 "/></g></g></g><g fill="#1e1e1e" fill-opacity="1"><g transform="translate(192.111976, 204.823098)"><g><path d="M 10.140625 0 L 8.8125 0 L 8.796875 -6.375 L 6.109375 -0.890625 L 5.171875 -0.890625 L 2.46875 -6.375 L 2.46875 0 L 1.125 0 L 1.125 -8.53125 L 2.828125 -8.53125 L 5.640625 -2.859375 L 8.453125 -8.53125 L 10.140625 -8.53125 Z M 10.140625 0 "/></g></g></g><g fill="#1e1e1e" fill-opacity="1"><g transform="translate(207.253127, 204.823098)"><g><path d="M 7.21875 -7.234375 L 2.5625 -7.234375 L 2.5625 -4.9375 L 6.734375 -4.9375 L 6.734375 -3.640625 L 2.5625 -3.640625 L 2.5625 -1.296875 L 7.359375 -1.296875 L 7.359375 0 L 1.125 0 L 1.125 -8.53125 L 7.21875 -8.53125 Z M 7.21875 -7.234375 "/></g></g></g><g fill="#1e1e1e" fill-opacity="1"><g transform="translate(219.115866, 204.823098)"><g><path d="M 8.515625 0 L 7.109375 0 L 2.5625 -6.125 L 2.5625 0 L 1.125 0 L 1.125 -8.53125 L 2.53125 -8.53125 L 7.109375 -2.40625 L 7.109375 -8.53125 L 8.515625 -8.53125 Z M 8.515625 0 "/></g></g></g><g fill="#1e1e1e" fill-opacity="1"><g transform="translate(232.636098, 204.823098)"><g><path d="M 6.953125 -7.234375 L 4.234375 -7.234375 L 4.234375 0 L 2.796875 0 L 2.796875 -7.234375 L 0.109375 -7.234375 L 0.109375 -8.53125 L 6.953125 -8.53125 Z M 6.953125 -7.234375 "/></g></g></g><g fill="#1e1e1e" fill-opacity="1"><g transform="translate(243.560399, 204.823098)"><g/></g></g><g fill="#1e1e1e" fill-opacity="1"><g transform="translate(250.572537, 204.823098)"><g><path d="M 3.921875 -8.59375 C 5.023438 -8.59375 6.019531 -8.300781 6.90625 -7.71875 L 6.3125 -6.453125 C 5.445312 -6.972656 4.613281 -7.234375 3.8125 -7.234375 C 3.382812 -7.234375 3.046875 -7.15625 2.796875 -7 C 2.546875 -6.851562 2.421875 -6.632812 2.421875 -6.34375 C 2.421875 -6.0625 2.535156 -5.820312 2.765625 -5.625 C 2.992188 -5.425781 3.273438 -5.28125 3.609375 -5.1875 C 3.953125 -5.09375 4.320312 -4.972656 4.71875 -4.828125 C 5.125 -4.691406 5.492188 -4.539062 5.828125 -4.375 C 6.171875 -4.21875 6.453125 -3.96875 6.671875 -3.625 C 6.898438 -3.289062 7.015625 -2.882812 7.015625 -2.40625 C 7.015625 -1.664062 6.71875 -1.070312 6.125 -0.625 C 5.53125 -0.175781 4.753906 0.046875 3.796875 0.046875 C 3.148438 0.046875 2.519531 -0.0703125 1.90625 -0.3125 C 1.300781 -0.5625 0.769531 -0.890625 0.3125 -1.296875 L 0.9375 -2.546875 C 1.363281 -2.148438 1.832031 -1.84375 2.34375 -1.625 C 2.863281 -1.40625 3.359375 -1.296875 3.828125 -1.296875 C 4.328125 -1.296875 4.71875 -1.390625 5 -1.578125 C 5.28125 -1.765625 5.421875 -2.019531 5.421875 -2.34375 C 5.421875 -2.632812 5.304688 -2.878906 5.078125 -3.078125 C 4.847656 -3.273438 4.5625 -3.421875 4.21875 -3.515625 C 3.882812 -3.609375 3.515625 -3.722656 3.109375 -3.859375 C 2.710938 -3.992188 2.34375 -4.132812 2 -4.28125 C 1.664062 -4.4375 1.382812 -4.679688 1.15625 -5.015625 C 0.925781 -5.347656 0.8125 -5.75 0.8125 -6.21875 C 0.8125 -6.9375 1.09375 -7.507812 1.65625 -7.9375 C 2.226562 -8.375 2.984375 -8.59375 3.921875 -8.59375 Z M 3.921875 -8.59375 "/></g></g></g><g fill="#1e1e1e" fill-opacity="1"><g transform="translate(262.020908, 204.823098)"><g><path d="M 4.625 -2.84375 L 4.625 0 L 3.1875 0 L 3.1875 -2.796875 L 0.015625 -8.53125 L 1.46875 -8.53125 L 3.90625 -4.375 L 6.28125 -8.53125 L 7.75 -8.53125 Z M 4.625 -2.84375 "/></g></g></g><g fill="#1e1e1e" fill-opacity="1"><g transform="translate(273.652087, 204.823098)"><g><path d="M 3.921875 -8.59375 C 5.023438 -8.59375 6.019531 -8.300781 6.90625 -7.71875 L 6.3125 -6.453125 C 5.445312 -6.972656 4.613281 -7.234375 3.8125 -7.234375 C 3.382812 -7.234375 3.046875 -7.15625 2.796875 -7 C 2.546875 -6.851562 2.421875 -6.632812 2.421875 -6.34375 C 2.421875 -6.0625 2.535156 -5.820312 2.765625 -5.625 C 2.992188 -5.425781 3.273438 -5.28125 3.609375 -5.1875 C 3.953125 -5.09375 4.320312 -4.972656 4.71875 -4.828125 C 5.125 -4.691406 5.492188 -4.539062 5.828125 -4.375 C 6.171875 -4.21875 6.453125 -3.96875 6.671875 -3.625 C 6.898438 -3.289062 7.015625 -2.882812 7.015625 -2.40625 C 7.015625 -1.664062 6.71875 -1.070312 6.125 -0.625 C 5.53125 -0.175781 4.753906 0.046875 3.796875 0.046875 C 3.148438 0.046875 2.519531 -0.0703125 1.90625 -0.3125 C 1.300781 -0.5625 0.769531 -0.890625 0.3125 -1.296875 L 0.9375 -2.546875 C 1.363281 -2.148438 1.832031 -1.84375 2.34375 -1.625 C 2.863281 -1.40625 3.359375 -1.296875 3.828125 -1.296875 C 4.328125 -1.296875 4.71875 -1.390625 5 -1.578125 C 5.28125 -1.765625 5.421875 -2.019531 5.421875 -2.34375 C 5.421875 -2.632812 5.304688 -2.878906 5.078125 -3.078125 C 4.847656 -3.273438 4.5625 -3.421875 4.21875 -3.515625 C 3.882812 -3.609375 3.515625 -3.722656 3.109375 -3.859375 C 2.710938 -3.992188 2.34375 -4.132812 2 -4.28125 C 1.664062 -4.4375 1.382812 -4.679688 1.15625 -5.015625 C 0.925781 -5.347656 0.8125 -5.75 0.8125 -6.21875 C 0.8125 -6.9375 1.09375 -7.507812 1.65625 -7.9375 C 2.226562 -8.375 2.984375 -8.59375 3.921875 -8.59375 Z M 3.921875 -8.59375 "/></g></g></g><g fill="#1e1e1e" fill-opacity="1"><g transform="translate(285.100458, 204.823098)"><g><path d="M 6.953125 -7.234375 L 4.234375 -7.234375 L 4.234375 0 L 2.796875 0 L 2.796875 -7.234375 L 0.109375 -7.234375 L 0.109375 -8.53125 L 6.953125 -8.53125 Z M 6.953125 -7.234375 "/></g></g></g><g fill="#1e1e1e" fill-opacity="1"><g transform="translate(296.024758, 204.823098)"><g><path d="M 7.21875 -7.234375 L 2.5625 -7.234375 L 2.5625 -4.9375 L 6.734375 -4.9375 L 6.734375 -3.640625 L 2.5625 -3.640625 L 2.5625 -1.296875 L 7.359375 -1.296875 L 7.359375 0 L 1.125 0 L 1.125 -8.53125 L 7.21875 -8.53125 Z M 7.21875 -7.234375 "/></g></g></g><g fill="#1e1e1e" fill-opacity="1"><g transform="translate(307.887497, 204.823098)"><g><path d="M 10.140625 0 L 8.8125 0 L 8.796875 -6.375 L 6.109375 -0.890625 L 5.171875 -0.890625 L 2.46875 -6.375 L 2.46875 0 L 1.125 0 L 1.125 -8.53125 L 2.828125 -8.53125 L 5.640625 -2.859375 L 8.453125 -8.53125 L 10.140625 -8.53125 Z M 10.140625 0 "/></g></g></g></svg>